# xmcd
#
# Track frame offsets:
#	150
#	21703
#	30084
#	49707
#	61012
#	85392
#	96317
#	119979
#	131502
#	145539
#	154735
#	180616
#	190661
#	204487
#	216874
#	242993
#	251058
#
# Disc length: 3743 seconds
#
# Revision: 1
# Processed by: cddbd v1.4PL0 Copyright (c) Steve Scherf et al.
# Submitted via: EasyCDDAExtractor 6.0.0.1
#
DISCID=f30e9d11
DTITLE=Gideon Freudmann - Hologram Crackers
DYEAR=1999
DGENRE=Blues
TTITLE0=Excursion
TTITLE1=Back Porch
TTITLE2=Robin Hood Changes his Oil
TTITLE3=Cocoon
TTITLE4=Backlit
TTITLE5=Hologram Crackers
TTITLE6=Blue Moon
TTITLE7=Flume - April March
TTITLE8=Haunted Merry-Go-Round
TTITLE9=Carpal Tunnel
TTITLE10=Mango
TTITLE11=Bayou Barn Dance
TTITLE12=Blind Man's Bluff
TTITLE13=Licorice Particleboard
TTITLE14=Transcendental Zombies
TTITLE15=Fish Food
TTITLE16=Molecule
EXTD=
EXTT0=
EXTT1=
EXTT2=
EXTT3=
EXTT4=
EXTT5=
EXTT6=
EXTT7=
EXTT8=
EXTT9=
EXTT10=
EXTT11=
EXTT12=
EXTT13=
EXTT14=
EXTT15=
EXTT16=
PLAYORDER=
